<?xml version="1.0" encoding="utf-8"?>
<!-- Generator: Adobe Illustrator 27.8.1, SVG Export Plug-In . SVG Version: 6.00 Build 0)  -->
<svg version="1.1" id="Artwork" xmlns="http://www.w3.org/2000/svg" xmlns:xlink="http://www.w3.org/1999/xlink" x="0px" y="0px"
	 viewBox="0 0 283.46 283.46" style="enable-background:new 0 0 283.46 283.46;" xml:space="preserve">
<style type="text/css">
	.st0{fill:#FF8200;}
	.st1{fill:#FFFFFF;}
</style>
<g>
	<path class="st0" d="M141.77,0C63.59,0,0,63.59,0,141.75c0,78.15,63.59,141.71,141.77,141.71c78.13,0,141.69-63.57,141.69-141.71
		C283.46,63.59,219.9,0,141.77,0z"/>
	<g>
		<path class="st1" d="M184.18,179.76c-3.16,0-5.71,2.54-5.71,5.69c0,3.13,2.55,5.67,5.71,5.67c3.11,0,5.66-2.54,5.66-5.67
			C189.84,182.3,187.29,179.76,184.18,179.76z"/>
		<path class="st1" d="M99.3,179.76c-3.14,0-5.71,2.54-5.71,5.69c0,3.13,2.57,5.67,5.71,5.67c3.13,0,5.72-2.54,5.72-5.67
			C105.02,182.3,102.43,179.76,99.3,179.76z"/>
		<path class="st1" d="M214.2,72.96v0.19c0-10.51-8.57-19.07-19.08-19.07H88.33c-10.49,0-19.05,8.56-19.05,19.07v-0.19l-3.79,122.15
			v0.07c0,10.51,8.54,19.06,19.04,19.06h3.98v9.48c0,6.03,4.91,10.93,10.96,10.93c6.02,0,10.95-4.9,10.95-10.93v-9.48h62.62v9.48
			c0,6.03,4.92,10.93,10.94,10.93c6.09,0,10.98-4.9,10.98-10.93v-9.48h3.97c10.53,0,19.04-8.55,19.04-19.06V195L214.2,72.96z
			 M79.99,73.31v-0.16c0-4.6,3.76-8.32,8.34-8.32h106.79c4.59,0,8.32,3.72,8.32,8.32v0.16c0,0,0.13,3.41,0.29,9.16H79.73
			C79.91,76.72,79.99,73.31,79.99,73.31z M99.3,196.5c-6.1,0-11.04-4.97-11.04-11.05c0-6.1,4.94-11.06,11.04-11.06
			c6.1,0,11.05,4.96,11.05,11.06C110.34,191.53,105.4,196.5,99.3,196.5z M139.04,156.45H77.42c0.65-21.04,1.45-46.19,1.97-63.29
			h59.65V156.45z M184.18,196.5c-6.1,0-11.06-4.97-11.06-11.05c0-6.1,4.96-11.06,11.06-11.06c6.07,0,11.05,4.96,11.05,11.06
			C195.22,191.53,190.25,196.5,184.18,196.5z M144.41,156.45V93.15h59.65c0.52,17.1,1.32,42.25,1.97,63.29H144.41z"/>
	</g>
</g>
</svg>
