<?xml version="1.0" encoding="utf-8"?>
<!-- Generator: Adobe Illustrator 27.8.1, SVG Export Plug-In . SVG Version: 6.00 Build 0)  -->
<svg version="1.1" id="Artwork" xmlns="http://www.w3.org/2000/svg" xmlns:xlink="http://www.w3.org/1999/xlink" x="0px" y="0px"
	 viewBox="0 0 283.46 283.46" style="enable-background:new 0 0 283.46 283.46;" xml:space="preserve">
<style type="text/css">
	.st0{fill:#046A38;}
	.st1{fill:#FFFFFF;}
</style>
<path class="st0" d="M283.46,141.73c0,78.28-63.46,141.73-141.73,141.73C63.46,283.46,0,220.01,0,141.73C0,63.46,63.46,0,141.74,0
	C220.01,0,283.46,63.46,283.46,141.73"/>
<path class="st1" d="M202.44,159.55c-6.84,0.02-12.33-5.64-12.37-12.61c0.04-7.02,5.54-12.69,12.37-12.63
	c6.72-0.06,12.22,5.61,12.26,12.63C214.66,153.9,209.16,159.57,202.44,159.55 M84.24,119.92L95.19,90.4
	c1.32-4.2,3.37-7.19,8.22-7.26h76.65c4.77,0.07,6.83,3.07,8.21,7.26l10.95,29.52H84.24z M81.03,159.55
	c-6.79,0.02-12.29-5.64-12.26-12.61c-0.03-7.02,5.47-12.69,12.26-12.63c6.77-0.06,12.27,5.61,12.25,12.63
	C93.3,153.9,87.79,159.57,81.03,159.55 M214.22,120.27L199.7,82.77c-2.72-7.18-8.65-13.28-19.88-13.34h-76.3
	c-11.17,0.05-17.11,6.16-19.88,13.34l-14.52,37.49c-5.77,0.74-15.97,7.52-15.95,20.35v47.74h14.17v15.24
	c-0.03,18.79,26.55,18.57,26.54,0v-15.24h95.59v15.24c0.06,18.57,26.64,18.79,26.66,0v-15.24h14.17v-47.74
	C230.25,127.79,220.04,121.01,214.22,120.27"/>
</svg>
