<?xml version="1.0" encoding="utf-8"?>
<!-- Generator: Adobe Illustrator 27.8.1, SVG Export Plug-In . SVG Version: 6.00 Build 0)  -->
<svg version="1.1" id="Artwork" xmlns="http://www.w3.org/2000/svg" xmlns:xlink="http://www.w3.org/1999/xlink" x="0px" y="0px"
	 viewBox="0 0 283.46 283.46" style="enable-background:new 0 0 283.46 283.46;" xml:space="preserve">
<style type="text/css">
	.st0{fill:#FFFFFF;}
	.st1{fill:#A57FB2;}
</style>
<g>
	<path class="st0" d="M185.69,179.76c-3.13,0-5.72,2.54-5.72,5.69c0,3.13,2.59,5.67,5.72,5.67c3.13,0,5.71-2.54,5.71-5.67
		C191.4,182.3,188.83,179.76,185.69,179.76z"/>
	<path class="st0" d="M97.78,179.76c-3.13,0-5.71,2.54-5.71,5.69c0,3.13,2.57,5.67,5.71,5.67c3.13,0,5.72-2.54,5.72-5.67
		C103.5,182.3,100.91,179.76,97.78,179.76z"/>
	<path class="st0" d="M214.27,73.15c0-0.07-0.02-0.13-0.02-0.2l-0.21-5.61c-0.32-8.38-4.22-13.81-10.32-16.99
		c-0.38-0.23-0.78-0.46-1.25-0.68c-0.04-0.02-0.07-0.03-0.11-0.05c-8.72-4.1-32.56-7.06-60.62-7.06s-51.91,2.95-60.62,7.06
		c-0.04,0.02-0.07,0.03-0.11,0.05c-0.47,0.22-0.87,0.45-1.25,0.68c-6.09,3.18-10,8.61-10.32,16.99l-0.21,5.61
		c0,0.07-0.02,0.13-0.02,0.2v-0.19L65.42,195v0.18c0,7.16,4,13.34,9.86,16.59v11.94c0,6.03,4.91,10.93,10.96,10.93
		c6.02,0,10.95-4.9,10.95-10.93v-9.48h44.55h44.55v9.48c0,6.03,4.93,10.93,10.95,10.93c6.05,0,10.96-4.9,10.96-10.93v-11.94
		c5.85-3.26,9.86-9.43,9.86-16.59V195l-3.78-122.04V73.15z M79.95,73.31v-0.16c0-4.6,3.73-8.32,8.32-8.32h53.46h53.46
		c4.59,0,8.32,3.72,8.32,8.32v0.16c0,0,0.08,2.06,0.19,5.65H79.77C79.88,75.37,79.95,73.31,79.95,73.31z M97.78,196.5
		c-6.1,0-11.04-4.97-11.04-11.05c0-6.1,4.94-11.06,11.04-11.06c6.1,0,11.05,4.96,11.05,11.06
		C108.83,191.53,103.88,196.5,97.78,196.5z M159.66,190.01h-35.85c-2.53,0-4.58-2.05-4.58-4.58c0-2.53,2.05-4.58,4.58-4.58h35.85
		c2.53,0,4.58,2.05,4.58,4.58C164.24,187.97,162.19,190.01,159.66,190.01z M185.69,196.5c-6.1,0-11.05-4.97-11.05-11.05
		c0-6.1,4.95-11.06,11.05-11.06c6.1,0,11.04,4.96,11.04,11.06C196.73,191.53,191.79,196.5,185.69,196.5z M77.69,145.71
		c0.58-18.42,1.2-38.28,1.65-52.55l0.1-3.46h124.59l0.1,3.46c0.45,14.27,1.07,34.13,1.65,52.55H77.69z"/>
	<path class="st1" d="M204.03,89.7H79.44l-0.1,3.46c-0.45,14.27-1.07,34.13-1.65,52.55h128.09c-0.58-18.42-1.2-38.28-1.65-52.55
		L204.03,89.7z"/>
	<path class="st1" d="M141.77,0C63.59,0,0,63.59,0,141.75c0,78.15,63.59,141.71,141.77,141.71c78.13,0,141.69-63.57,141.69-141.71
		C283.46,63.59,219.9,0,141.77,0z M218.05,195.18c0,7.16-4,13.34-9.86,16.59v11.94c0,6.03-4.91,10.93-10.96,10.93
		c-6.02,0-10.95-4.9-10.95-10.93v-9.48h-44.55H97.18v9.48c0,6.03-4.93,10.93-10.95,10.93c-6.05,0-10.96-4.9-10.96-10.93v-11.94
		c-5.85-3.26-9.86-9.43-9.86-16.59V195L69.2,72.96v0.19c0-0.07,0.02-0.13,0.02-0.2l0.21-5.61c0.32-8.38,4.22-13.81,10.32-16.99
		c0.38-0.23,0.78-0.46,1.25-0.68c0.04-0.02,0.07-0.03,0.11-0.05c8.72-4.1,32.56-7.06,60.62-7.06s51.9,2.95,60.62,7.06
		c0.04,0.02,0.07,0.03,0.11,0.05c0.47,0.22,0.87,0.45,1.25,0.68c6.09,3.18,10,8.61,10.32,16.99l0.21,5.61c0,0.07,0.02,0.13,0.02,0.2
		v-0.19L218.05,195V195.18z"/>
	<path class="st1" d="M203.52,73.31v-0.16c0-4.6-3.73-8.32-8.32-8.32h-53.46H88.27c-4.59,0-8.32,3.72-8.32,8.32v0.16
		c0,0-0.08,2.06-0.19,5.65h123.94C203.59,75.37,203.52,73.31,203.52,73.31z"/>
	<path class="st1" d="M97.78,174.39c-6.1,0-11.04,4.96-11.04,11.06c0,6.08,4.94,11.05,11.04,11.05c6.1,0,11.05-4.97,11.05-11.05
		C108.83,179.35,103.88,174.39,97.78,174.39z M97.78,191.12c-3.13,0-5.71-2.54-5.71-5.67c0-3.15,2.57-5.69,5.71-5.69
		c3.13,0,5.72,2.54,5.72,5.69C103.5,188.58,100.91,191.12,97.78,191.12z"/>
	<path class="st1" d="M159.66,180.86h-35.85c-2.53,0-4.58,2.05-4.58,4.58c0,2.53,2.05,4.58,4.58,4.58h35.85
		c2.53,0,4.58-2.05,4.58-4.58C164.24,182.91,162.19,180.86,159.66,180.86z"/>
	<path class="st1" d="M185.69,174.39c-6.1,0-11.05,4.96-11.05,11.06c0,6.08,4.95,11.05,11.05,11.05c6.1,0,11.04-4.97,11.04-11.05
		C196.73,179.35,191.79,174.39,185.69,174.39z M185.69,191.12c-3.13,0-5.72-2.54-5.72-5.67c0-3.15,2.59-5.69,5.72-5.69
		c3.13,0,5.71,2.54,5.71,5.69C191.4,188.58,188.83,191.12,185.69,191.12z"/>
</g>
</svg>
