<?xml version="1.0" encoding="utf-8"?>
<!-- Generator: Adobe Illustrator 27.8.1, SVG Export Plug-In . SVG Version: 6.00 Build 0)  -->
<svg version="1.1" id="Artwork" xmlns="http://www.w3.org/2000/svg" xmlns:xlink="http://www.w3.org/1999/xlink" x="0px" y="0px"
	 viewBox="0 0 283.46 283.46" style="enable-background:new 0 0 283.46 283.46;" xml:space="preserve">
<style type="text/css">
	.st0{fill:#003DA5;}
	.st1{fill:#FFFFFF;}
</style>
<path class="st0" d="M283.46,141.73c0,78.28-63.46,141.73-141.73,141.73C63.45,283.46,0,220.01,0,141.73S63.45,0,141.73,0
	C220.01,0,283.46,63.45,283.46,141.73"/>
<g>
	<path class="st1" d="M171.62,71.03c8.94,0,15.94-7,15.94-15.93c0-8.94-7-15.94-15.94-15.94c-8.69,0-15.93,7-15.93,15.94
		C155.68,64.03,162.92,71.03,171.62,71.03"/>
	<path class="st1" d="M89.4,171.29l12.18-17.37c4.69,4.6,7.93,10.65,9.03,17.37H89.4z M79.67,207.72c-17.15,0-31.4-14.01-31.4-31.4
		c0-17.15,14.25-31.39,31.4-31.39c4.89,0,9.5,1.16,13.61,3.17l-17.73,25.29c-0.62,0.88-0.92,1.9-0.92,2.9c0,0.01,0,0.02,0,0.03
		c0,0.1,0.02,0.2,0.03,0.3c0.01,0.21,0.03,0.42,0.06,0.63c0.04,0.2,0.1,0.39,0.16,0.58c0.04,0.11,0.06,0.23,0.11,0.34
		c0.09,0.22,0.2,0.43,0.32,0.63c0.04,0.07,0.07,0.15,0.12,0.23c0.15,0.23,0.32,0.44,0.49,0.64c0.04,0.04,0.07,0.09,0.11,0.13
		c0.56,0.59,1.27,1.03,2.05,1.29c0.08,0.03,0.16,0.05,0.24,0.07c0.43,0.11,0.88,0.2,1.34,0.2h0.01c0.01,0,0.01,0,0.01,0
		s0.01,0,0.02,0h30.91C108.22,196.33,95.34,207.72,79.67,207.72 M107.47,145.53l5.23-7.46l-7.26-7.29l-6.24,8.9
		c-5.83-3.11-12.47-4.88-19.52-4.88c-22.94,0-41.54,18.59-41.54,41.53c0,22.94,18.59,41.53,41.54,41.53
		c22.94,0,41.53-18.59,41.53-41.53C121.2,164.09,115.88,153.13,107.47,145.53"/>
	<path class="st1" d="M148.12,143.29c-0.05-0.26-0.14-0.49-0.22-0.74c-0.09-0.3-0.16-0.61-0.29-0.91c-0.09-0.21-0.2-0.4-0.31-0.59
		c-0.15-0.32-0.3-0.63-0.51-0.92c-0.2-0.29-0.43-0.55-0.66-0.81c-0.13-0.15-0.24-0.32-0.38-0.46l-0.03-0.03
		c-0.02-0.02-0.03-0.03-0.05-0.05l-21.86-21.85l18.34-17.87v16.18c0,4.22,3.43,7.5,7.61,7.69h32.61c3.43-0.89,6.03-4.01,6.03-7.69
		c0-4.35-3.62-7.97-7.97-7.97H158.1l-0.24-26.57c0-0.96-0.24-2.17-0.48-3.14c-0.48-0.96-0.97-1.69-1.69-2.65l-7.25-7.49
		c-1.45-1.69-3.62-2.41-5.8-2.41c-2.18-0.24-4.11,0.72-5.55,2.18l-37.66,37.65c-0.02,0.01-0.03,0.03-0.05,0.04
		c-3.38,3.38-3.38,9.02,0,12.4l10.02,10.01c-0.01,0-0.01,0.01-0.01,0.01l6.15,6.15c0.01-0.01,0.01-0.01,0.01-0.01l15.23,15.22v30.47
		c0,4.78,3.98,8.77,8.76,8.77c4.78,0,8.77-3.99,8.77-8.77v-33.97c0-0.06,0-0.12,0-0.18c0-0.01-0.01-0.01-0.01-0.01
		C148.29,144.39,148.23,143.83,148.12,143.29"/>
	<path class="st1" d="M201.44,207.72c-17.38,0-31.39-14.01-31.39-31.4c0-10.7,5.46-20.27,13.79-25.95l12.9,27.94
		c0.86,1.85,2.69,2.94,4.61,2.94c0.71,0,1.43-0.15,2.12-0.47c2.54-1.17,3.65-4.18,2.47-6.72l-12.9-27.95
		c2.67-0.75,5.48-1.18,8.4-1.18c17.15,0,31.39,14.24,31.39,31.39C232.83,193.71,218.59,207.72,201.44,207.72 M201.44,134.79
		c-4.44,0-8.7,0.71-12.71,2l-3.93-8.49h-11.17l5.91,12.77c-11.77,7.33-19.64,20.36-19.64,35.25c0,22.94,18.59,41.53,41.53,41.53
		s41.53-18.59,41.53-41.53C242.97,153.39,224.38,134.79,201.44,134.79"/>
</g>
</svg>
