<?xml version="1.0" encoding="utf-8"?>
<!-- Generator: Adobe Illustrator 27.8.1, SVG Export Plug-In . SVG Version: 6.00 Build 0)  -->
<svg version="1.1" id="Artwork" xmlns="http://www.w3.org/2000/svg" xmlns:xlink="http://www.w3.org/1999/xlink" x="0px" y="0px"
	 viewBox="0 0 283.46 283.46" style="enable-background:new 0 0 283.46 283.46;" xml:space="preserve">
<style type="text/css">
	.st0{fill:#00A499;}
	.st1{fill:#FFFFFF;}
</style>
<g>
	<path class="st0" d="M141.77,0C63.6,0,0,63.59,0,141.75c0,78.14,63.6,141.71,141.77,141.71c78.13,0,141.69-63.57,141.69-141.71
		C283.46,63.59,219.9,0,141.77,0z M232.83,221.87c-5.5,0-8.05,2.4-11.57,5.74c-4.05,3.83-9.1,8.6-18.78,8.6
		c-9.67,0-14.72-4.77-18.78-8.6c-3.52-3.34-6.07-5.74-11.57-5.74c-5.5,0-8.05,2.4-11.58,5.75c-4.06,3.83-9.14,8.6-18.82,8.6
		c-9.68,0-14.76-4.77-18.82-8.6c-3.53-3.34-6.07-5.75-11.58-5.75c-5.5,0-8.05,2.4-11.57,5.74c-4.06,3.83-9.1,8.6-18.78,8.6
		c-9.68,0-14.73-4.77-18.78-8.6c-3.52-3.34-6.07-5.74-11.57-5.74c-2.9,0-5.25-2.36-5.25-5.25c0-2.9,2.35-5.25,5.25-5.25
		c7.37,0,12.05,2.78,15.65,5.79c-4.9-24.94-7.48-38.82-9.1-47.59c-1.26-6.84-1.96-10.6-2.74-14.06
		c-2.54-11.26,4.16-21.26,17.47-26.1l0.81-0.29c1.66-0.61,3.28-1.19,4.86-1.77l2-43.47v0.24c0-9.55,7.73-17.32,17.3-17.32h39.6
		v-8.63H120.8c-1.24,0-2.25-1.01-2.25-2.25c0-1.24,1.01-2.25,2.25-2.25h15.68V30.64c0-2.9,2.35-5.25,5.25-5.25
		c2.9,0,5.25,2.35,5.25,5.25v23.03h15.68c1.24,0,2.25,1.01,2.25,2.25c0,1.24-1.01,2.25-2.25,2.25h-15.68v8.63h39.6
		c9.56,0,17.3,7.78,17.3,17.32v-0.24l2,43.47c1.58,0.57,3.2,1.16,4.86,1.77l0.81,0.29c13.31,4.84,20.01,14.84,17.47,26.1
		c-0.78,3.46-1.48,7.22-2.74,14.06c-1.62,8.77-4.2,22.65-9.1,47.59c3.61-3.01,8.29-5.79,15.65-5.79c2.9,0,5.25,2.35,5.25,5.25
		C238.08,219.51,235.73,221.87,232.83,221.87z"/>
	<path class="st1" d="M232.83,211.37c-7.37,0-12.05,2.78-15.65,5.79c4.9-24.94,7.48-38.82,9.1-47.59c1.26-6.84,1.96-10.6,2.74-14.06
		c2.54-11.26-4.16-21.26-17.47-26.1l-0.81-0.29c-1.66-0.61-3.28-1.19-4.86-1.77l-2-43.47v0.24c0-9.55-7.73-17.32-17.3-17.32h-39.6
		v-8.63h15.68c1.24,0,2.25-1.01,2.25-2.25c0-1.24-1.01-2.25-2.25-2.25h-15.68V30.64c0-2.9-2.35-5.25-5.25-5.25
		c-2.9,0-5.25,2.35-5.25,5.25v23.03H120.8c-1.24,0-2.25,1.01-2.25,2.25c0,1.24,1.01,2.25,2.25,2.25h15.68v8.63h-39.6
		c-9.56,0-17.3,7.78-17.3,17.32v-0.24l-2,43.47c-1.58,0.57-3.2,1.16-4.86,1.77l-0.81,0.29c-13.31,4.84-20.01,14.84-17.47,26.1
		c0.78,3.46,1.48,7.22,2.74,14.06c1.62,8.77,4.2,22.65,9.1,47.59c-3.61-3.01-8.29-5.79-15.65-5.79c-2.9,0-5.25,2.35-5.25,5.25
		c0,2.89,2.35,5.25,5.25,5.25c5.5,0,8.05,2.4,11.57,5.74c4.05,3.83,9.1,8.6,18.78,8.6c9.67,0,14.72-4.77,18.78-8.6
		c3.52-3.34,6.07-5.74,11.57-5.74c5.5,0,8.05,2.4,11.58,5.75c4.06,3.83,9.14,8.6,18.82,8.6c9.68,0,14.76-4.77,18.82-8.6
		c3.53-3.34,6.07-5.75,11.58-5.75c5.5,0,8.05,2.4,11.57,5.74c4.06,3.83,9.1,8.6,18.78,8.6c9.68,0,14.73-4.77,18.78-8.6
		c3.52-3.34,6.07-5.74,11.57-5.74c2.9,0,5.25-2.36,5.25-5.25C238.08,213.72,235.73,211.37,232.83,211.37z M92.05,161.06
		c-4.41,0-8-3.59-8-8c0-4.42,3.59-8,8-8c4.41,0,8,3.59,8,8C100.05,157.47,96.46,161.06,92.05,161.06z M141.73,106.13
		c-2.48,0.28-9.96,1.84-34.71,10.42c0.25-5.52,0.53-11.51,0.83-18.13v-0.09v-0.05c0-2.66,2.15-4.8,4.81-4.8h58.15
		c2.66,0,4.81,2.14,4.81,4.8v0.05v0.09c0.3,6.61,0.58,12.61,0.83,18.13C151.7,107.96,144.21,106.41,141.73,106.13z M181.77,98.12
		v0.15c0-6.06-4.92-11.01-10.99-11.01h-58.09c-6.08,0-10.99,4.95-10.99,11.01v-0.15l-0.95,20.62c-4.26,1.5-8.95,3.16-14.16,5.03
		c0.53-11.45,1.13-24.52,1.82-39.43V84.2v-0.09c0-4.18,3.38-7.55,7.55-7.55h91.55c4.18,0,7.55,3.37,7.55,7.55v0.09v0.14
		c0.69,14.91,1.29,27.97,1.82,39.43c-5.21-1.87-9.91-3.53-14.16-5.03L181.77,98.12z M191.42,161.06c-4.41,0-7.99-3.59-7.99-8
		c0-4.42,3.58-8,7.99-8c4.41,0,8,3.59,8,8C199.42,157.47,195.83,161.06,191.42,161.06z"/>
	<path class="st0" d="M92.05,145.06c-4.41,0-8,3.59-8,8c0,4.41,3.59,8,8,8c4.41,0,8-3.59,8-8
		C100.05,148.65,96.46,145.06,92.05,145.06z M92.05,155.44c-1.31,0-2.38-1.07-2.38-2.38c0-1.31,1.07-2.38,2.38-2.38
		c1.31,0,2.37,1.07,2.37,2.38C94.42,154.37,93.36,155.44,92.05,155.44z"/>
	<path class="st0" d="M191.42,145.06c-4.41,0-7.99,3.59-7.99,8c0,4.41,3.58,8,7.99,8c4.41,0,8-3.59,8-8
		C199.42,148.65,195.83,145.06,191.42,145.06z M191.42,155.44c-1.31,0-2.38-1.07-2.38-2.38c0-1.31,1.07-2.38,2.38-2.38
		c1.3,0,2.37,1.07,2.37,2.38C193.79,154.37,192.72,155.44,191.42,155.44z"/>
	<path class="st1" d="M191.42,150.69c-1.31,0-2.38,1.07-2.38,2.38c0,1.31,1.07,2.38,2.38,2.38c1.3,0,2.37-1.07,2.37-2.38
		C193.79,151.75,192.72,150.69,191.42,150.69z"/>
	<path class="st1" d="M92.05,150.69c-1.31,0-2.38,1.07-2.38,2.38c0,1.31,1.07,2.38,2.38,2.38c1.31,0,2.37-1.07,2.37-2.38
		C94.42,151.75,93.36,150.69,92.05,150.69z"/>
	<path class="st0" d="M175.61,98.33v-0.05c0-2.66-2.15-4.8-4.81-4.8h-58.15c-2.66,0-4.81,2.14-4.81,4.8v0.05v0.09
		c-0.3,6.61-0.58,12.61-0.83,18.13c24.75-8.58,32.23-10.14,34.71-10.42c2.48,0.28,9.96,1.84,34.71,10.42
		c-0.25-5.52-0.53-11.51-0.83-18.13V98.33z"/>
	<path class="st0" d="M195.06,84.34V84.2v-0.09c0-4.18-3.38-7.55-7.55-7.55H95.95c-4.18,0-7.55,3.37-7.55,7.55v0.09v0.14
		c-0.69,14.91-1.29,27.97-1.82,39.43c5.21-1.87,9.91-3.53,14.16-5.03l0.95-20.62v0.15c0-6.06,4.92-11.01,10.99-11.01h58.09
		c6.08,0,10.99,4.95,10.99,11.01v-0.15l0.95,20.62c4.26,1.5,8.95,3.16,14.16,5.03C196.35,112.31,195.75,99.25,195.06,84.34z"/>
</g>
</svg>
