<?xml version="1.0" encoding="utf-8"?>
<!-- Generator: Adobe Illustrator 27.8.1, SVG Export Plug-In . SVG Version: 6.00 Build 0)  -->
<svg version="1.1" id="Artwork" xmlns="http://www.w3.org/2000/svg" xmlns:xlink="http://www.w3.org/1999/xlink" x="0px" y="0px"
	 viewBox="0 0 283.46 283.46" style="enable-background:new 0 0 283.46 283.46;" xml:space="preserve">
<style type="text/css">
	.st0{fill:#FF8200;}
	.st1{fill:#FFFFFF;}
</style>
<g>
	<path class="st0" d="M141.73,0C63.46,0,0,63.46,0,141.73s63.46,141.73,141.73,141.73c78.28,0,141.73-63.46,141.73-141.73
		S220.01,0,141.73,0z M47.78,96.81c0-13.44,10.93-24.37,24.37-24.37h56.75l9.67,9.84c0.53,0.54,0.86,1.29,0.86,2.11
		c0,0.82-0.33,1.57-0.86,2.11l-9.67,9.84H72.15c-0.26,0-0.46,0.21-0.46,0.46v30.08c-9.83,0.15-18.52,5.03-23.91,12.46V96.81z
		 M114.02,156.5H72.15c-0.26,0-0.46,0.21-0.46,0.46v38.77l-9.82,9.64c-0.56,0.55-1.33,0.89-2.18,0.89c-0.85,0-1.62-0.34-2.18-0.89
		l-9.74-9.57v-38.85c0-13.44,10.93-24.37,24.37-24.37h41.86V156.5z M166.28,204.66h-23.91V156.5h-13.13l-9.77-9.95
		c-0.53-0.54-0.86-1.29-0.86-2.12c0-0.83,0.33-1.58,0.86-2.12l9.56-9.73h13.32v-30.54h23.93v30.54h31.3
		c9.99,0,18.12-8.13,18.12-18.12s-8.13-18.12-18.12-18.12h-30.72h-24.61c0.25-13.23,11.19-23.91,24.48-23.91h30.86
		c23.18,0,42.03,18.86,42.03,42.04s-18.86,42.03-42.03,42.03h-31.3V204.66z M235.89,204.25c-0.22,0.74-0.72,1.39-1.45,1.8
		c-0.73,0.4-1.56,0.48-2.3,0.27l-13.25-3.71l-22.09-40.38h0.77c8.41,0,16.31-2.19,23.18-6.03l19.08,34.88L235.89,204.25z"/>
	<path class="st1" d="M71.69,126.89V96.81c0-0.26,0.21-0.46,0.46-0.46h56.75l9.67-9.84c0.53-0.54,0.86-1.29,0.86-2.11
		c0-0.83-0.33-1.57-0.86-2.11l-9.67-9.84H72.15c-13.44,0-24.37,10.93-24.37,24.37v42.54C53.17,131.92,61.86,127.04,71.69,126.89z"/>
	<path class="st1" d="M47.78,156.97v38.85l9.74,9.57c0.56,0.55,1.33,0.89,2.18,0.89c0.85,0,1.62-0.34,2.18-0.89l9.82-9.64v-38.77
		c0-0.26,0.21-0.46,0.46-0.46h41.86v-23.91H72.15C58.71,132.59,47.78,143.53,47.78,156.97z"/>
	<path class="st1" d="M197.58,162.22h-0.77l22.09,40.38l13.25,3.71c0.74,0.21,1.56,0.14,2.3-0.27c0.73-0.4,1.23-1.06,1.45-1.8
		l3.95-13.18l-19.08-34.88C213.89,160.03,205.99,162.22,197.58,162.22z"/>
	<path class="st1" d="M239.61,114.47c0-23.18-18.86-42.04-42.03-42.04h-30.86c-13.28,0-24.23,10.69-24.48,23.91h24.61h30.72
		c9.99,0,18.12,8.13,18.12,18.12s-8.13,18.12-18.12,18.12h-31.3v-30.54h-23.93v30.54h-13.32l-9.56,9.73
		c-0.53,0.54-0.86,1.29-0.86,2.12c0,0.83,0.33,1.58,0.86,2.12l9.77,9.95h13.13v48.15h23.91V156.5h31.3
		C220.76,156.5,239.61,137.65,239.61,114.47z"/>
</g>
</svg>
