<?xml version="1.0" encoding="utf-8"?>
<!-- Generator: Adobe Illustrator 27.8.1, SVG Export Plug-In . SVG Version: 6.00 Build 0)  -->
<svg version="1.1" id="Artwork" xmlns="http://www.w3.org/2000/svg" xmlns:xlink="http://www.w3.org/1999/xlink" x="0px" y="0px"
	 viewBox="0 0 283.46 283.46" style="enable-background:new 0 0 283.46 283.46;" xml:space="preserve">
<style type="text/css">
	.st0{fill:#FFFFFF;}
	.st1{fill:#7F0D82;}
</style>
<g>
	<path class="st0" d="M137.77,88.42h-34.61c-0.16,2.04-2.11,28.16-2.37,31.54h36.98V88.42z"/>
	<path class="st0" d="M177.76,88.42h-34.62v31.54h36.96C179.87,116.58,177.9,90.46,177.76,88.42z"/>
	<path class="st0" d="M220.52,214.85H190.6l-7.84-11.5h22.62c1.5,0,2.66-1.19,2.66-2.67c0-1.48-1.16-2.7-2.66-2.7h-26.28l-8.2-12.04
		h29.96c10.5,0,19.08-8.52,19.08-19.02v-0.22l-7.05-95.79v0.4c0-10.5-8.55-19.06-19.06-19.06H87.08c-10.52,0-19.07,8.56-19.07,19.06
		v-0.4l-7.04,95.79v0.22c0,10.5,8.54,19.02,19.06,19.02h29.95l-8.19,12.04H75.57c-1.46,0-2.66,1.22-2.66,2.7
		c0,1.49,1.2,2.67,2.66,2.67h22.56l-7.86,11.5H60.49c-2.99,0-5.35,2.4-5.35,5.38c0,2.95,2.37,5.36,5.35,5.36h22.48l-7.47,10.99
		c-0.48,0.69-0.52,1.62-0.15,2.33c0.41,0.76,1.22,1.23,2.05,1.23h15.95c0.95,0,1.76-0.57,2.12-1.44l5.21-13.11h79.54l5.22,13.11
		c0.34,0.87,1.19,1.44,2.13,1.44h15.99c0.82,0,1.61-0.47,2-1.23c0.4-0.71,0.34-1.64-0.13-2.33l-7.48-10.99h22.59
		c2.91,0,5.38-2.42,5.38-5.36C225.9,217.25,223.43,214.85,220.52,214.85z M170.85,164.92c-3.47,0-6.27-2.81-6.27-6.3
		c0-3.48,2.81-6.3,6.27-6.3c3.5,0,6.35,2.81,6.35,6.3C177.2,162.11,174.35,164.92,170.85,164.92z M169.22,197.97h-57.55l4.8-12.04
		h47.98L169.22,197.97z M194.12,158.62c0,3.48-2.81,6.3-6.31,6.3c-3.52,0-6.29-2.81-6.29-6.3c0-3.48,2.77-6.3,6.29-6.3
		C191.31,152.33,194.12,155.14,194.12,158.62z M89.97,121.12l2.53-34.3c0.01-5.03,4.12-9.14,9.17-9.14h77.54
		c5.06,0,9.18,4.11,9.19,9.13l2.57,34.31v0.39c0,5.07-4.1,9.16-9.16,9.16H99.09c-5.04,0-9.17-4.09-9.17-9.16
		C89.92,121.4,89.95,121.25,89.97,121.12z M93.09,164.92c-3.48,0-6.3-2.81-6.3-6.3c0-3.48,2.82-6.3,6.3-6.3
		c3.48,0,6.28,2.81,6.28,6.3C99.37,162.11,96.57,164.92,93.09,164.92z M103.72,158.62c0-3.48,2.82-6.3,6.35-6.3
		c3.45,0,6.28,2.81,6.28,6.3c0,3.48-2.84,6.3-6.28,6.3C106.53,164.92,103.72,162.11,103.72,158.62z M104.96,214.85l4.56-11.5h61.86
		l4.56,11.5H104.96z"/>
	<path class="st1" d="M99.09,130.67h82.72c5.06,0,9.16-4.09,9.16-9.16v-0.39l-2.57-34.31c-0.01-5.02-4.13-9.13-9.19-9.13h-77.54
		c-5.05,0-9.16,4.11-9.17,9.14l-2.53,34.3c-0.02,0.13-0.05,0.28-0.05,0.39C89.92,126.58,94.05,130.67,99.09,130.67z M143.15,88.42
		h34.62c0.14,2.04,2.1,28.16,2.35,31.54h-36.96V88.42z M103.17,88.42h34.61v31.54h-36.98C101.05,116.58,103,90.46,103.17,88.42z"/>
	<path class="st1" d="M181.53,158.62c0,3.48,2.77,6.3,6.29,6.3c3.49,0,6.31-2.81,6.31-6.3c0-3.48-2.81-6.3-6.31-6.3
		C184.3,152.33,181.53,155.14,181.53,158.62z"/>
	<path class="st1" d="M170.85,152.33c-3.47,0-6.27,2.81-6.27,6.3c0,3.48,2.81,6.3,6.27,6.3c3.5,0,6.35-2.81,6.35-6.3
		C177.2,155.14,174.35,152.33,170.85,152.33z"/>
	<path class="st1" d="M93.09,152.33c-3.48,0-6.3,2.81-6.3,6.3c0,3.48,2.82,6.3,6.3,6.3c3.48,0,6.28-2.81,6.28-6.3
		C99.37,155.14,96.57,152.33,93.09,152.33z"/>
	<path class="st1" d="M116.34,158.62c0-3.48-2.84-6.3-6.28-6.3c-3.53,0-6.35,2.81-6.35,6.3c0,3.48,2.82,6.3,6.35,6.3
		C113.51,164.92,116.34,162.11,116.34,158.62z"/>
	<polygon class="st1" points="109.52,203.35 104.96,214.85 175.93,214.85 171.38,203.35 	"/>
	<polygon class="st1" points="116.46,185.93 111.67,197.97 169.22,197.97 164.45,185.93 	"/>
	<path class="st1" d="M141.77,0C63.6,0,0,63.59,0,141.76c0,78.14,63.6,141.71,141.77,141.71c78.13,0,141.69-63.56,141.69-141.71
		C283.46,63.59,219.9,0,141.77,0z M220.52,225.6h-22.59l7.48,10.99c0.48,0.69,0.53,1.62,0.13,2.33c-0.39,0.76-1.18,1.23-2,1.23
		h-15.99c-0.94,0-1.79-0.57-2.13-1.44l-5.22-13.11h-79.54l-5.21,13.11c-0.36,0.87-1.17,1.44-2.12,1.44H77.4
		c-0.84,0-1.65-0.47-2.05-1.23c-0.37-0.71-0.33-1.64,0.15-2.33l7.47-10.99H60.49c-2.99,0-5.35-2.42-5.35-5.36
		c0-2.98,2.37-5.38,5.35-5.38h29.78l7.86-11.5H75.57c-1.46,0-2.66-1.19-2.66-2.67c0-1.48,1.2-2.7,2.66-2.7h26.23l8.19-12.04H80.04
		c-10.53,0-19.06-8.52-19.06-19.02v-0.22l7.04-95.79v0.4c0-10.5,8.55-19.06,19.07-19.06h106.75c10.51,0,19.06,8.56,19.06,19.06v-0.4
		l7.05,95.79v0.22c0,10.5-8.58,19.02-19.08,19.02h-29.96l8.2,12.04h26.28c1.5,0,2.66,1.22,2.66,2.7c0,1.49-1.16,2.67-2.66,2.67
		h-22.62l7.84,11.5h29.91c2.91,0,5.38,2.4,5.38,5.38C225.9,223.18,223.43,225.6,220.52,225.6z"/>
</g>
</svg>
