<?xml version="1.0" encoding="utf-8"?>
<!-- Generator: Adobe Illustrator 27.8.1, SVG Export Plug-In . SVG Version: 6.00 Build 0)  -->
<svg version="1.1" id="Artwork" xmlns="http://www.w3.org/2000/svg" xmlns:xlink="http://www.w3.org/1999/xlink" x="0px" y="0px"
	 viewBox="0 0 283.46 283.46" style="enable-background:new 0 0 283.46 283.46;" xml:space="preserve">
<style type="text/css">
	.st0{fill:#FFFFFF;}
	.st1{fill:#D92B26;}
</style>
<g>
	<path class="st0" d="M97.9,179.76c-3.13,0-5.71,2.54-5.71,5.69c0,3.13,2.57,5.67,5.71,5.67c3.13,0,5.72-2.54,5.72-5.67
		C103.62,182.3,101.03,179.76,97.9,179.76z"/>
	<path class="st0" d="M213.46,73.15c0-10.51-8.57-19.07-19.08-19.07H87.59c-10.49,0-19.05,8.56-19.05,19.07v-0.19l-3.79,122.15v0.07
		c0,10.51,8.54,19.06,19.04,19.06h3.33v9.48c0,6.03,4.91,10.93,10.96,10.93c6.02,0,10.95-4.9,10.95-10.93v-9.48h63.27v9.48
		c0,6.03,4.92,10.93,10.94,10.93c6.09,0,10.98-4.9,10.98-10.93v-9.48h3.97c10.53,0,19.04-8.55,19.04-19.06V195l-3.78-122.04V73.15z
		 M79.25,73.31v-0.16c0-4.6,3.76-8.32,8.34-8.32h106.79c4.59,0,8.32,3.72,8.32,8.32v0.16c0,0,0.13,3.41,0.29,9.16H78.99
		C79.16,76.72,79.25,73.31,79.25,73.31z M97.9,196.5c-6.1,0-11.04-4.97-11.04-11.05c0-6.1,4.94-11.06,11.04-11.06
		c6.1,0,11.05,4.96,11.05,11.06C108.95,191.53,104,196.5,97.9,196.5z M137.97,156.45H76.68c0.65-21.04,1.45-46.19,1.97-63.29h59.32
		V156.45z M183.44,196.5c-6.1,0-11.06-4.97-11.06-11.05c0-6.1,4.96-11.06,11.06-11.06c6.07,0,11.05,4.96,11.05,11.06
		C194.48,191.53,189.51,196.5,183.44,196.5z M143.34,156.45V93.15h59.98c0.54,17.1,1.32,42.25,1.99,63.29H143.34z"/>
	<path class="st0" d="M183.44,179.76c-3.16,0-5.71,2.54-5.71,5.69c0,3.13,2.55,5.67,5.71,5.67c3.11,0,5.66-2.54,5.66-5.67
		C189.1,182.3,186.55,179.76,183.44,179.76z"/>
	<path class="st1" d="M76.68,156.45h61.29V93.15H78.65C78.13,110.25,77.33,135.4,76.68,156.45z"/>
	<path class="st1" d="M202.7,73.31v-0.16c0-4.6-3.73-8.32-8.32-8.32H87.59c-4.57,0-8.34,3.72-8.34,8.32v0.16
		c0,0-0.09,3.41-0.26,9.16h124.01C202.83,76.72,202.7,73.31,202.7,73.31z"/>
	<path class="st1" d="M143.34,93.15v63.29h61.97c-0.67-21.04-1.46-46.19-1.99-63.29H143.34z"/>
	<path class="st1" d="M97.9,174.39c-6.1,0-11.04,4.96-11.04,11.06c0,6.08,4.94,11.05,11.04,11.05c6.1,0,11.05-4.97,11.05-11.05
		C108.95,179.35,104,174.39,97.9,174.39z M97.9,191.12c-3.13,0-5.71-2.54-5.71-5.67c0-3.15,2.57-5.69,5.71-5.69
		c3.13,0,5.72,2.54,5.72,5.69C103.62,188.58,101.03,191.12,97.9,191.12z"/>
	<path class="st1" d="M183.44,174.39c-6.1,0-11.06,4.96-11.06,11.06c0,6.08,4.96,11.05,11.06,11.05c6.07,0,11.05-4.97,11.05-11.05
		C194.48,179.35,189.51,174.39,183.44,174.39z M183.44,191.12c-3.16,0-5.71-2.54-5.71-5.67c0-3.15,2.55-5.69,5.71-5.69
		c3.11,0,5.66,2.54,5.66,5.69C189.1,188.58,186.55,191.12,183.44,191.12z"/>
	<path class="st1" d="M141.77,0C63.59,0,0,63.59,0,141.75c0,78.15,63.59,141.71,141.77,141.71c78.13,0,141.69-63.57,141.69-141.71
		C283.46,63.59,219.9,0,141.77,0z M217.23,195.18c0,10.51-8.52,19.06-19.04,19.06h-3.97v9.48c0,6.03-4.89,10.93-10.98,10.93
		c-6.02,0-10.94-4.9-10.94-10.93v-9.48h-63.27v9.48c0,6.03-4.93,10.93-10.95,10.93c-6.05,0-10.96-4.9-10.96-10.93v-9.48h-3.33
		c-10.5,0-19.04-8.55-19.04-19.06v-0.07l3.79-122.15v0.19c0-10.51,8.56-19.07,19.05-19.07h106.79c10.51,0,19.08,8.56,19.08,19.07
		v-0.19L217.23,195V195.18z"/>
</g>
</svg>
