<?xml version="1.0" encoding="utf-8"?>
<!-- Generator: Adobe Illustrator 27.8.1, SVG Export Plug-In . SVG Version: 6.00 Build 0)  -->
<svg version="1.1" id="Artwork" xmlns="http://www.w3.org/2000/svg" xmlns:xlink="http://www.w3.org/1999/xlink" x="0px" y="0px"
	 viewBox="0 0 283.46 283.46" style="enable-background:new 0 0 283.46 283.46;" xml:space="preserve">
<style type="text/css">
	.st0{fill:#FFCD00;}
	.st1{fill:#333434;}
</style>
<g>
	<circle class="st0" cx="141.73" cy="141.73" r="141.73"/>
	<g>
		<path class="st1" d="M149.52,73.01c9.4,0.81,17.45-6.17,17.98-15.3c0.81-9.4-6.17-17.45-15.3-18.25
			c-9.13-0.54-17.18,6.17-17.98,15.57C133.41,64.16,140.39,72.21,149.52,73.01z"/>
		<path class="st1" d="M202.13,131.26l-20.94-14.5l-15.57-31.14c-1.88-3.49-5.37-5.64-9.13-5.64h-24.96c-2.68,0-5.37,1.07-7.25,3.22
			l-26.04,25.77c-1.07,1.07-1.88,2.42-2.42,4.03l-7.78,30.06c-1.34,4.29,1.07,9.13,5.1,10.47c1.07,0.27,1.88,0.54,2.95,0.54
			c3.76,0,7.25-2.42,8.32-6.44l7.52-28.19l13.96-14.23l-17.98,81.87l-25.5,38.12c-2.95,4.56-1.61,11.01,2.95,13.96
			c1.61,1.07,3.49,1.61,5.64,1.61c3.22,0,6.17-1.61,8.32-4.29l26.31-39.73c0.54-1.07,1.07-2.42,1.34-3.49l5.91-26.04l24.96,25.23
			l5.64,39.73c0.81,5.1,5.1,8.59,9.93,8.59h1.61c5.37-0.81,9.13-5.91,8.32-11.27l-6.17-43.22c-0.27-2.15-1.34-4.03-2.68-5.64
			l-24.96-24.7l9.66-43.49c0-0.27,0.54-0.27,0.81,0l6.98,13.96c0.81,1.34,1.61,2.42,2.95,3.22l22.82,15.84
			c1.61,1.07,3.22,1.61,4.83,1.61c2.95,0,5.64-1.61,7.25-4.03C207.23,139.05,205.89,133.95,202.13,131.26z"/>
	</g>
</g>
</svg>
